<svg id="Layer_1" data-name="Layer 1" xmlns="http://www.w3.org/2000/svg" xmlns:xlink="http://www.w3.org/1999/xlink" viewBox="0 0 1200 385.62"><defs><style>.cls-1{fill:#3cafd9;}.cls-2{fill:#229ec9;}.cls-3{fill:#444a54;}.cls-4{fill:#535a64;}.cls-16,.cls-5{fill:#a9b3be;}.cls-10,.cls-19,.cls-20,.cls-21,.cls-24,.cls-5,.cls-7,.cls-8{stroke:#444a54;stroke-miterlimit:10;}.cls-5,.cls-7{stroke-width:2.6px;}.cls-10,.cls-19,.cls-6,.cls-7,.cls-8{fill:#fff;}.cls-8{stroke-width:2.34px;}.cls-24,.cls-9{fill:#66cdf4;}.cls-10{stroke-width:2.39px;}.cls-11{fill:#907bb9;}.cls-12{fill:#ffcf56;}.cls-13{fill:#f36f54;}.cls-14{fill:#dc4654;}.cls-15{fill:#cdd1d9;}.cls-17{fill:#656e79;}.cls-18{fill:#5cc2a8;}.cls-19,.cls-20,.cls-24{stroke-width:2.46px;}.cls-20,.cls-23{fill:#ffda67;}.cls-21{fill:#f37f8a;stroke-width:2.36px;}.cls-22{fill:url(#radial-gradient);}</style><radialGradient id="radial-gradient" cx="543.35" cy="-15.95" r="95.49" gradientTransform="translate(133.16 153.36) scale(0.36)" gradientUnits="userSpaceOnUse"><stop offset="0.03" stop-color="#f8f07f"/><stop offset="0.09" stop-color="#f7ef6e"/><stop offset="0.19" stop-color="#f6ee56"/><stop offset="0.3" stop-color="#f6ed44"/><stop offset="0.41" stop-color="#f5ec39"/><stop offset="0.55" stop-color="#f5ec36"/></radialGradient></defs><title>Web desing</title><polyline class="cls-1" points="0 385.62 0 0 1200 0 1200 385.62"/><path class="cls-2" d="M747.4,560.55H710.81a3.27,3.27,0,0,1-3.26-3.26h0a3.27,3.27,0,0,1,3.26-3.26H747.4a3.27,3.27,0,0,1,3.26,3.26h0A3.27,3.27,0,0,1,747.4,560.55Z" transform="translate(-200 -203)"/><path class="cls-2" d="M391.25,553.48H354.67a3.27,3.27,0,0,1-3.26-3.26h0a3.27,3.27,0,0,1,3.26-3.26h36.59a3.27,3.27,0,0,1,3.26,3.26h0A3.27,3.27,0,0,1,391.25,553.48Z" transform="translate(-200 -203)"/><path class="cls-2" d="M510.45,572.68H473.86a3.27,3.27,0,0,1-3.26-3.26h0a3.27,3.27,0,0,1,3.26-3.26h36.59a3.27,3.27,0,0,1,3.26,3.26h0A3.27,3.27,0,0,1,510.45,572.68Z" transform="translate(-200 -203)"/><path class="cls-2" d="M309.39,332H272.8a3.27,3.27,0,0,1-3.26-3.26h0a3.27,3.27,0,0,1,3.26-3.26h36.59a3.27,3.27,0,0,1,3.26,3.26h0A3.27,3.27,0,0,1,309.39,332Z" transform="translate(-200 -203)"/><path class="cls-2" d="M273.32,353.8H236.74a3.27,3.27,0,0,1-3.26-3.26h0a3.27,3.27,0,0,1,3.26-3.26h36.59a3.27,3.27,0,0,1,3.26,3.26h0A3.27,3.27,0,0,1,273.32,353.8Z" transform="translate(-200 -203)"/><path class="cls-2" d="M369.7,240.55H333.11a3.27,3.27,0,0,1-3.26-3.26h0a3.27,3.27,0,0,1,3.26-3.26H369.7a3.27,3.27,0,0,1,3.26,3.26h0A3.27,3.27,0,0,1,369.7,240.55Z" transform="translate(-200 -203)"/><path class="cls-2" d="M409,259.81H372.4a3.27,3.27,0,0,1-3.26-3.26h0a3.27,3.27,0,0,1,3.26-3.26H409a3.27,3.27,0,0,1,3.26,3.26h0A3.27,3.27,0,0,1,409,259.81Z" transform="translate(-200 -203)"/><path class="cls-2" d="M526.18,231H489.59a3.27,3.27,0,0,1-3.26-3.26h0a3.27,3.27,0,0,1,3.26-3.26h36.59a3.27,3.27,0,0,1,3.26,3.26h0A3.27,3.27,0,0,1,526.18,231Z" transform="translate(-200 -203)"/><path class="cls-2" d="M799.37,223.64H762.79a3.27,3.27,0,0,1-3.26-3.26h0a3.27,3.27,0,0,1,3.26-3.26h36.59a3.27,3.27,0,0,1,3.26,3.26h0A3.27,3.27,0,0,1,799.37,223.64Z" transform="translate(-200 -203)"/><circle class="cls-2" cx="569.95" cy="128.71" r="4.97"/><circle class="cls-2" cx="588.7" cy="66.57" r="4.97"/><circle class="cls-2" cx="373.21" cy="40.32" r="4.97"/><circle class="cls-2" cx="55.03" cy="214.6" r="4.97"/><circle class="cls-2" cx="135.37" cy="90.37" r="4.97"/><circle class="cls-2" cx="55.03" cy="264.7" r="4.97"/><circle class="cls-2" cx="593.67" cy="363.48" r="4.97"/><circle class="cls-2" cx="38.66" cy="363.16" r="4.97"/><circle class="cls-2" cx="555.11" cy="323.07" r="4.97"/><circle class="cls-2" cx="255.24" cy="45.34" r="6.79"/><circle class="cls-2" cx="37.79" cy="102.9" r="6.79"/><circle class="cls-2" cx="332.06" cy="57.1" r="4.97"/><circle class="cls-2" cx="92.05" cy="55.25" r="4.97"/><circle class="cls-2" cx="377.64" cy="360.81" r="4.97"/><path class="cls-2" d="M282.9,553.62h0a3.36,3.36,0,0,1-3.35-3.35V529.43a3.36,3.36,0,0,1,3.35-3.35h0a3.36,3.36,0,0,1,3.35,3.35v20.84A3.36,3.36,0,0,1,282.9,553.62Z" transform="translate(-200 -203)"/><rect class="cls-2" x="279.55" y="526.07" width="6.71" height="27.55" rx="3.35" ry="3.35" transform="translate(622.75 53.95) rotate(90)"/><path class="cls-2" d="M234,237.48h0a3.36,3.36,0,0,1,0-4.74L248.77,218a3.36,3.36,0,0,1,4.74,0h0a3.36,3.36,0,0,1,0,4.74l-14.74,14.74A3.36,3.36,0,0,1,234,237.48Z" transform="translate(-200 -203)"/><path class="cls-2" d="M234,218h0a3.36,3.36,0,0,1,4.74,0l14.74,14.74a3.36,3.36,0,0,1,0,4.74h0a3.36,3.36,0,0,1-4.74,0L234,222.74A3.36,3.36,0,0,1,234,218Z" transform="translate(-200 -203)"/><rect class="cls-2" x="585.34" y="179.03" width="6.71" height="27.55" rx="3.35" ry="3.35"/><path class="cls-2" d="M774.92,395.81h0a3.36,3.36,0,0,1,3.35-3.35h20.84a3.36,3.36,0,0,1,3.35,3.35h0a3.36,3.36,0,0,1-3.35,3.35H778.27A3.36,3.36,0,0,1,774.92,395.81Z" transform="translate(-200 -203)"/><path class="cls-3" d="M1325.35,456h0a2.06,2.06,0,0,1-2.05-2.05V303.39a2.06,2.06,0,0,1,2.05-2.05h0a2.06,2.06,0,0,1,2.05,2.05V453.95A2.06,2.06,0,0,1,1325.35,456Z" transform="translate(-200 -203)"/><path class="cls-4" d="M678.74,524.3h-290a1.55,1.55,0,0,1-1.55-1.55h0a1.55,1.55,0,0,1,1.55-1.55h290a1.55,1.55,0,0,1,1.55,1.55h0A1.55,1.55,0,0,1,678.74,524.3Z" transform="translate(-200 -203)"/><rect class="cls-4" x="201.67" y="336.85" width="111.08" height="3.1" rx="0.95" ry="0.95"/><rect class="cls-4" x="321.2" y="336.85" width="53.27" height="3.1" rx="0.66" ry="0.66"/><path class="cls-5" d="M557,514.08H502.67c5.78-12,6.93-26.21,5.21-41.73h41.73C548.08,485.76,551,499.72,557,514.08Z" transform="translate(-200 -203)"/><path class="cls-5" d="M604.24,522.76H458.86c-6.44,0-6.44-11.43,0-11.43H604.24C609,511.33,609,522.76,604.24,522.76Z" transform="translate(-200 -203)"/><rect class="cls-5" x="182.54" y="75.13" width="299.05" height="199.9" rx="10.66" ry="10.66"/><rect class="cls-6" x="394.12" y="287.17" width="279.22" height="166.15" transform="translate(867.47 537.49) rotate(180)"/><ellipse class="cls-7" cx="329.2" cy="263.3" rx="8" ry="8.11"/><rect class="cls-8" x="303.9" y="336.84" width="132.5" height="178.86" transform="translate(-311.92 -70.54) rotate(-17.67)"/><rect class="cls-9" x="292.93" y="350.39" width="108.79" height="24.52" transform="translate(-293.69 -80.47) rotate(-17.67)"/><rect class="cls-9" x="305.59" y="391.68" width="46.98" height="31.03" transform="translate(-308.07 -83.91) rotate(-17.67)"/><rect class="cls-9" x="333.32" y="481.99" width="36.17" height="31.6" transform="translate(-334.51 -72.86) rotate(-17.67)"/><rect class="cls-9" x="361.45" y="374.1" width="46.98" height="9.64" transform="translate(-296.85 -68.29) rotate(-17.67)"/><rect class="cls-9" x="367.2" y="392.15" width="46.98" height="9.64" transform="translate(-302.06 -65.69) rotate(-17.67)"/><rect class="cls-9" x="312.04" y="419.38" width="108.79" height="6.55" transform="translate(-311 -71.84) rotate(-17.67)"/><rect class="cls-9" x="320.99" y="431.2" width="93.89" height="5.76" transform="translate(-314.4 -70.85) rotate(-17.67)"/><rect class="cls-9" x="370.78" y="468.33" width="68.64" height="5.76" transform="translate(-323.91 -57.81) rotate(-17.67)"/><rect class="cls-9" x="374.02" y="478.48" width="68.64" height="5.76" transform="translate(-326.84 -56.35) rotate(-17.67)"/><rect class="cls-9" x="377.07" y="488.08" width="68.64" height="5.76" transform="translate(-329.61 -54.97) rotate(-17.67)"/><rect class="cls-9" x="323.82" y="456.92" width="23.11" height="21.55" transform="translate(-326.14 -79.14) rotate(-17.67)"/><rect class="cls-9" x="351.23" y="448.19" width="23.11" height="21.55" transform="translate(-322.19 -71.23) rotate(-17.67)"/><rect class="cls-9" x="378.09" y="439.64" width="23.11" height="21.55" transform="translate(-318.33 -63.49) rotate(-17.67)"/><rect class="cls-9" x="404.43" y="431.24" width="23.11" height="21.55" transform="translate(-314.54 -55.89) rotate(-17.67)"/><rect class="cls-10" x="619.17" y="231.5" width="126.09" height="138.22" transform="translate(-115.13 -348.44) rotate(12.97)"/><rect class="cls-1" x="672.54" y="268.16" width="27.1" height="26.51" transform="translate(-119.34 -349.8) rotate(12.97)"/><rect class="cls-11" x="702.89" y="275.15" width="27.1" height="26.51" transform="translate(-117 -356.44) rotate(12.97)"/><rect class="cls-12" x="635.52" y="292.58" width="27.1" height="26.51" transform="translate(-114.8 -340.87) rotate(12.97)"/><rect class="cls-13" x="665.57" y="299.5" width="27.1" height="26.51" transform="translate(-112.48 -347.43) rotate(12.97)"/><rect class="cls-14" x="695.69" y="306.44" width="27.1" height="26.51" transform="translate(-110.16 -354.02) rotate(12.97)"/><rect class="cls-15" x="628.38" y="323.42" width="27.1" height="26.51" transform="translate(-108.07 -338.48) rotate(12.97)"/><rect class="cls-16" x="658.43" y="330.34" width="27.1" height="26.51" transform="translate(-105.75 -345.05) rotate(12.97)"/><rect class="cls-17" x="688.55" y="337.28" width="27.1" height="26.51" transform="translate(-103.42 -351.63) rotate(12.97)"/><rect class="cls-18" x="642.72" y="261.29" width="27.1" height="26.51" transform="translate(-121.64 -343.28) rotate(12.97)"/><rect class="cls-9" x="640.26" y="243.71" width="106.19" height="19.15" transform="translate(-125.47 -352.15) rotate(12.97)"/><polygon class="cls-19" points="433.59 229.72 458.02 203.05 461.71 239.91 433.59 229.72"/><polygon class="cls-3" points="460.43 196.6 450.62 210.48 460.16 213.46 460.43 196.6"/><polygon class="cls-20" points="462.78 239.09 432.93 229.03 395.18 344.23 403.15 346.92 403.15 346.92 425.02 354.29 462.78 239.09"/><polygon class="cls-21" points="441.57 360.38 507.58 244.15 525.49 255.2 451.16 366.42 441.57 360.38"/><path class="cls-19" d="M727.85,430.52s-4.28-30.64,28.9-38.5C756.75,392,753.13,432.94,727.85,430.52Z" transform="translate(-200 -203)"/><polygon class="cls-19" points="525.49 255.2 507.58 244.15 527.92 222.94 535.15 227.4 525.49 255.2"/><polygon class="cls-5" points="323.52 233 316.82 220.98 323.52 208.95 336.92 208.95 343.62 220.98 336.92 233 323.52 233"/><ellipse class="cls-22" cx="330.94" cy="147.55" rx="34.66" ry="34.85"/><path class="cls-23" d="M565.6,350.55a34.66,34.66,0,1,0-57.32,26.38c7.19,8.65,7.4,25.56,7.4,25.56h29.54s.49-16.17,7.68-24.82c.12-.14.23-.28.32-.42A34.85,34.85,0,0,0,565.6,350.55Z" transform="translate(-200 -203)"/><polygon class="cls-5" points="344.98 204.48 314.82 204.48 312.74 199.49 347.69 199.49 344.98 204.48"/><rect class="cls-5" x="315.69" y="204.48" width="29.02" height="21.96"/><polygon class="cls-3" points="343.99 210.76 345.43 209.77 343.99 208.76 343.99 208.75 343.97 208.75 343.97 208.74 343.97 208.75 316.71 208.75 316.71 208.74 316.71 208.75 316.68 208.75 316.68 208.77 315.24 209.75 316.68 210.77 316.68 210.78 316.7 210.78 316.7 210.78 316.7 210.78 343.96 210.78 343.96 210.78 343.96 210.78 343.99 210.78 343.99 210.76"/><polygon class="cls-3" points="343.86 216.62 345.3 215.63 343.86 214.61 343.86 214.6 343.84 214.6 343.84 214.6 343.84 214.6 316.58 214.6 316.58 214.6 316.58 214.6 316.55 214.6 316.55 214.62 315.12 215.61 316.55 216.62 316.55 216.64 316.57 216.64 316.57 216.64 316.57 216.64 343.83 216.64 343.83 216.64 343.83 216.64 343.86 216.64 343.86 216.62"/><polygon class="cls-3" points="343.99 222.63 345.43 221.64 343.99 220.62 343.99 220.61 343.97 220.61 343.97 220.61 343.97 220.61 316.71 220.61 316.71 220.61 316.71 220.61 316.68 220.61 316.68 220.63 315.24 221.62 316.68 222.63 316.68 222.65 316.7 222.65 316.7 222.65 316.7 222.65 343.96 222.65 343.96 222.65 343.96 222.65 343.99 222.65 343.99 222.63"/><rect class="cls-3" x="634.59" y="436.73" width="2.76" height="106.35" transform="translate(-10.89 -380.01) rotate(18.57)"/><rect class="cls-3" x="623.86" y="432.98" width="2.76" height="106.35" transform="translate(-12.64 -376.79) rotate(18.57)"/><rect class="cls-3" x="612.14" y="523.93" width="3.91" height="31.84" transform="translate(1123.71 -69.34) rotate(108.89)"/><rect class="cls-3" x="329.44" y="98.5" width="3" height="8.8"/><rect class="cls-3" x="543.71" y="304.21" width="3" height="8.8" transform="translate(-34.25 -392.89) rotate(23.21)"/><rect class="cls-3" x="554.2" y="310.67" width="3" height="8.8" transform="translate(89.83 -468.78) rotate(35.85)"/><rect class="cls-3" x="564.1" y="320.88" width="3" height="8.8" transform="translate(305.68 -527.43) rotate(54.83)"/><rect class="cls-3" x="512.45" y="304.21" width="3" height="8.8" transform="translate(907.94 186.67) rotate(156.79)"/><rect class="cls-3" x="501.96" y="310.67" width="3" height="8.8" transform="translate(896.07 72.55) rotate(144.15)"/><rect class="cls-3" x="492.06" y="320.88" width="3" height="8.8" transform="translate(843.76 -93.79) rotate(125.17)"/><rect class="cls-3" x="327.8" y="165.78" width="4.54" height="33.38"/><path class="cls-3" d="M516.41,364.75a19.48,19.48,0,0,0,26.37-.62c.88-.84-.45-2.17-1.33-1.33a17.54,17.54,0,0,1-23.7.62c-.92-.78-2.26.55-1.33,1.33Z" transform="translate(-200 -203)"/><circle class="cls-15" cx="270.6" cy="159.63" r="7.62"/><circle class="cls-15" cx="395.17" cy="209.76" r="7.62"/><circle class="cls-15" cx="373.21" cy="231.15" r="3.81"/><circle class="cls-15" cx="283" cy="231.15" r="3.81"/><circle class="cls-15" cx="391.93" cy="138.25" r="3.81"/><circle class="cls-15" cx="262.98" cy="102.9" r="3.81"/><path class="cls-24" d="M734,407.74s-2.72,6,1.13,6.22,5.15,1.56,4.71,3.08,3.31,7.46,7.17,3.95,9.45-26.76,9.45-26.76S749.16,389.57,734,407.74Z" transform="translate(-200 -203)"/><path class="cls-9" d="M767.54,448h0l-9.08-22.48L748.95,448h0a15.84,15.84,0,0,0-.92,4.7,10.32,10.32,0,1,0,20.64.11A9.57,9.57,0,0,0,767.54,448Z" transform="translate(-200 -203)"/><path class="cls-9" d="M775.63,494h0l-6.8-16.84L761.7,494h0a17,17,0,0,0-.69,3.74,7.74,7.74,0,1,0,15.47,0A8.6,8.6,0,0,0,775.63,494Z" transform="translate(-200 -203)"/><path class="cls-9" d="M754.34,480h0l-6.16-15.24L741.73,480h0a8.86,8.86,0,0,0-.62,3.16,7,7,0,1,0,14,.08C755.11,482.1,754.83,480,754.34,480Z" transform="translate(-200 -203)"/><path class="cls-6" d="M962.08,312.48h5.45l4.37,22.63c.76,4.5,1.65,8.94,2.41,13.44h.25c1-4.5,2-9,2.92-13.44l5.77-22.63h4.82l5.77,22.63c1,4.37,2,8.94,3,13.44h.25c.76-4.5,1.52-9,2.35-13.44l4.37-22.63h5.07l-8.62,41.59H994l-6.28-25c-.76-3.23-1.39-6.21-2-9.45h-.25c-.63,3.23-1.39,6.21-2.09,9.45l-6.15,25h-6.28Z" transform="translate(-200 -203)"/><path class="cls-6" d="M1016.16,312.48h24v4.44h-18.7V330h15.79v4.5h-15.79v15.09h19.34v4.5h-24.6Z" transform="translate(-200 -203)"/><path class="cls-6" d="M1049.58,312.48h12.36c8.43,0,14.26,2.85,14.26,10.14,0,4.12-2.16,7.8-6.09,9.07v.25c5,1,8.5,4.25,8.5,10,0,8.18-6.47,12.17-15.79,12.17h-13.25ZM1061,330.17c7.1,0,10-2.6,10-6.85,0-4.82-3.3-6.66-9.76-6.66h-6.4v13.5Zm1.08,19.72c7.16,0,11.35-2.6,11.35-8.18,0-5.14-4.06-7.48-11.35-7.48h-7.23v15.66Z" transform="translate(-200 -203)"/><path class="cls-6" d="M1099.54,312.48h10.4c12.81,0,19.65,7.42,19.65,20.61s-6.85,21-19.4,21h-10.65Zm10,37.28c9.7,0,14.58-6.15,14.58-16.67s-4.88-16.29-14.58-16.29h-4.75v33Z" transform="translate(-200 -203)"/><path class="cls-6" d="M1138.54,312.48h24v4.44h-18.7V330h15.79v4.5H1143.8v15.09h19.34v4.5h-24.6Z" transform="translate(-200 -203)"/><path class="cls-6" d="M1168.91,348.68l3.17-3.68a16.29,16.29,0,0,0,11.48,5.2c5.45,0,8.69-2.73,8.69-6.78,0-4.25-3-5.58-6.91-7.35l-6-2.6c-3.93-1.65-8.43-4.63-8.43-10.71,0-6.34,5.52-11,13.06-11a17.26,17.26,0,0,1,12.3,5.14l-2.85,3.42a13.26,13.26,0,0,0-9.45-3.93c-4.63,0-7.73,2.35-7.73,6.09,0,4,3.61,5.52,6.91,6.91l5.9,2.54c4.82,2.09,8.56,4.94,8.56,11.09,0,6.59-5.39,11.86-14.14,11.86A20.17,20.17,0,0,1,1168.91,348.68Z" transform="translate(-200 -203)"/><path class="cls-6" d="M1205.81,312.48h5.26v41.59h-5.26Z" transform="translate(-200 -203)"/><path class="cls-6" d="M1220.08,333.27c0-13.38,8.05-21.56,19.08-21.56a16,16,0,0,1,12,5.14l-2.92,3.42a11.76,11.76,0,0,0-8.94-3.93c-8.37,0-13.76,6.47-13.76,16.8s4.95,17.05,13.82,17.05a11.4,11.4,0,0,0,7.48-2.47V336.89H1238v-4.37h13.63V350c-2.66,2.79-7.23,4.82-12.81,4.82C1227.88,354.83,1220.08,346.84,1220.08,333.27Z" transform="translate(-200 -203)"/><path class="cls-6" d="M1261.61,312.48h5.45l15,26.12,4.5,8.62h.25c-.25-4.18-.63-8.88-.63-13.25V312.48h5v41.59h-5.45l-15.09-26.18-4.5-8.56h-.25c.32,4.18.7,8.62.7,13v21.75h-5Z" transform="translate(-200 -203)"/></svg>